<?xml version="1.0" encoding="utf-8"?>
<!-- Generator: Adobe Illustrator 21.1.0, SVG Export Plug-In . SVG Version: 6.00 Build 0)  -->
<svg version="1.1" id="Layer_1" xmlns="http://www.w3.org/2000/svg" xmlns:xlink="http://www.w3.org/1999/xlink" x="0px" y="0px"
	 viewBox="0 0 408.2 408.2" style="enable-background:new 0 0 408.2 408.2;" xml:space="preserve">
<style type="text/css">
	.st0{fill:#FDC500;}
	.st1{fill:url(#SVGID_1_);}
	.st2{fill:#FFFFFF;}
	.st3{fill:#ECECEC;}
</style>
<g>
	<path class="st0" d="M379.6,408.2H28.6C12.9,408.2,0,395.3,0,379.6V28.6C0,12.9,12.9,0,28.6,0h351.1c15.7,0,28.6,12.9,28.6,28.6
		v351.1C408.2,395.3,395.3,408.2,379.6,408.2z"/>
</g>
<radialGradient id="SVGID_1_" cx="202.3222" cy="187.9119" r="138.2816" gradientTransform="matrix(1 0 0 1.001 0 -2.134756e-04)" gradientUnits="userSpaceOnUse">
	<stop  offset="0" style="stop-color:#FFD66C"/>
	<stop  offset="1" style="stop-color:#FDC500"/>
</radialGradient>
<path class="st1" d="M94.2,180.7c0,0-9.7-82.8,72-101.4c0,0,85.3-14.3,118,20.4s30.7,71.1,31.3,92.4c0,0,38-8.7,44.7,6.7
	s15,101.1-163,101.1C16.9,297.5,35.9,197.7,50.9,191.7c15-6,41-1.3,41-1.3L94.2,180.7z"/>
<g>
	
		<image style="overflow:visible;opacity:0.4;" width="1458" height="1055" xlink:href="2DDF7761D6F312D0.png"  transform="matrix(0.24 0 0 0.24 29.2083 65.4495)">
	</image>
	<g>
		<path class="st2" d="M339,182.5c-4.6,0.4-9.2,0.8-13.8,1.2V172c0-58-39.3-105.1-111.2-105.1h-20C122.1,66.9,82.8,114,82.8,172
			v11.7c-4.6-0.4-9.2-0.8-13.8-1.2c-45.2-3.8-35.5,42.5-32.5,52.1c19.1,59.9,106.6,76.6,164.7,76.6c0.4,0,5.2,0,5.6,0
			c58.1,0,145.6-16.7,164.7-76.6C374.6,225,384.3,178.8,339,182.5z M194,85.4h20c63.8,1,91.5,38,92.2,85
			c-0.1,2.9-1.4,14.4-14.1,19.6c-15.4,6.4-42.6,13.6-83.1,13.6c-1.7,0-8.2,0-9.9,0c-40.4,0-67.6-7.3-83.1-13.6
			c-12.7-5.3-14-16.7-14.1-19.6C102.5,123.4,130.2,86.4,194,85.4z M115.6,210.9c16,5.7,43.5,12.4,83.5,12.4c1.7,0,8.2,0,9.9,0
			c40,0,67.5-6.7,83.5-12.4c4.5-1.6,9.3-3.1,13.7-5.2l0,11.2c0,0,0.5,13.5-14.1,19.2c-15.4,6-42.6,12.9-83.1,12.9h-9.9
			c-40.4,0-67.6-6.8-83.1-12.9c-14.7-5.7-14.1-19.2-14.1-19.2l0-11.3C106.3,207.7,111.1,209.3,115.6,210.9z M354.3,228.8
			c-18.3,49.7-101.5,63-147.5,62.8c-0.9,0-4.6,0-5.5,0c-46,0.2-129.2-13.1-147.5-62.8c-2.6-7.1-7.2-32.5,18.7-29.4
			c3,0.4,6.4,0.9,10.3,1.4v18.7c0,27.1,17.8,31.2,32.8,36.2c16,5.3,43.5,11.7,83.5,11.7h9.9c40,0,67.5-6.4,83.5-11.7
			c15-5,32.8-9.1,32.8-36.2v-18.7c3.9-0.5,7.4-1,10.3-1.4C361.5,196.3,356.9,221.7,354.3,228.8z"/>
	</g>
</g>
<g>
	<path class="st3" d="M335.6,197.2c-3,0.4-6.4,0.9-10.3,1.4v2.3c3.9-0.5,7.4-1,10.3-1.4c16.1-1.9,20.4,7.1,20.7,16
		C356.7,206,353.1,195.1,335.6,197.2z"/>
	<path class="st3" d="M194,85.4h20c63.1,1,90.9,37.2,92.1,83.5c0-0.3,0-0.5,0-0.7c-0.6-47-28.3-84-92.2-85h-20
		c-63.8,1-91.5,38-92.2,85c0,0.2,0,0.5,0,0.7C103.1,122.6,130.9,86.4,194,85.4z"/>
	<path class="st3" d="M306.2,214.7l0,0.3C306.2,214.8,306.2,214.7,306.2,214.7z"/>
	<path class="st3" d="M199.1,223.3c1.7,0,8.2,0,9.9,0c40,0,67.5-6.7,83.5-12.4c4.5-1.6,9.3-3.1,13.7-5.2l0-2.3
		c-4.5,2.1-9.2,3.6-13.7,5.2c-16,5.7-43.5,12.4-83.5,12.4c-1.7,0-8.2,0-9.9,0c-40,0-67.5-6.7-83.5-12.4c-4.5-1.6-9.3-3.1-13.7-5.2
		l0,2.3c4.5,2.1,9.2,3.6,13.7,5.2C131.6,216.5,159.1,223.3,199.1,223.3z"/>
	<path class="st3" d="M72.5,199.4c3,0.4,6.4,0.9,10.3,1.4v-2.3c-3.9-0.5-7.4-1-10.3-1.4c-17.5-2.1-21.1,8.8-20.7,18.2
		C52,206.6,56.4,197.5,72.5,199.4z"/>
	<path class="st3" d="M371.5,232.4C352.5,292.3,264.9,309,206.8,309c-0.4,0-5.2,0-5.6,0c-58.1,0-145.6-16.7-164.7-76.6
		c-1-3.3-2.8-10.8-3-19.1c-0.2,9.2,1.9,17.8,3,21.3c19.1,59.9,106.6,76.6,164.7,76.6c0.4,0,5.2,0,5.6,0
		c58.1,0,145.6-16.7,164.7-76.6c1.1-3.6,3.2-12.1,3-21.4C374.4,221.6,372.6,229.1,371.5,232.4z"/>
	<path class="st3" d="M101.9,214.9l0-0.3C101.9,214.7,101.9,214.8,101.9,214.9z"/>
	<path class="st3" d="M82.8,217.3v2.3c0,27.1,17.8,31.2,32.8,36.2c16,5.3,43.5,11.7,83.5,11.7h9.9c40,0,67.5-6.4,83.5-11.7
		c15-5,32.8-9.1,32.8-36.2v-2.3c0,27.1-17.8,31.2-32.8,36.2c-16,5.3-43.5,11.7-83.5,11.7h-9.9c-40,0-67.5-6.4-83.5-11.7
		C100.6,248.5,82.8,244.4,82.8,217.3z"/>
	<path class="st3" d="M306.2,214.7l0-9l0,0L306.2,214.7C306.2,214.6,306.2,214.6,306.2,214.7z"/>
	<path class="st3" d="M101.9,214.7C101.9,214.6,101.9,214.6,101.9,214.7l0-9l0,0L101.9,214.7z"/>
</g>
</svg>
