<svg viewBox="0 0 283.46 283.46" xmlns="http://www.w3.org/2000/svg"><path d="m2.635 141.725c0 76.309 61.861 138.17 138.17 138.17s138.17-61.861 138.17-138.17c0-.887-.017-1.77-.034-2.652h-276.272c-.017.882-.034 1.765-.034 2.652z" fill="#cf142b"/><g fill="#fff"><path d="m140.806 3.555c-75.423 0-136.722 60.433-138.137 135.518h276.274c-1.415-75.085-62.715-135.518-138.137-135.518z"/><path d="m141.835 15.43c33.718 0 65.418 13.13 89.26 36.973 23.842 23.842 36.973 55.542 36.973 89.26s-13.13 65.418-36.973 89.26-55.542 36.973-89.26 36.973-65.418-13.131-89.26-36.973-36.973-55.542-36.973-89.26 13.13-65.418 36.973-89.26c23.842-23.843 55.542-36.973 89.26-36.973m0-14c-77.449 0-140.233 62.784-140.233 140.232s62.784 140.233 140.233 140.233 140.233-62.785 140.233-140.233-62.785-140.232-140.233-140.232z"/></g></svg>