<?xml version="1.0" encoding="utf-8"?>
<!-- Generator: Adobe Illustrator 20.0.0, SVG Export Plug-In . SVG Version: 6.00 Build 0)  -->
<svg version="1.1" id="Warstwa_1" xmlns="http://www.w3.org/2000/svg" xmlns:xlink="http://www.w3.org/1999/xlink" x="0px" y="0px"
	 viewBox="0 0 436.6 130" enable-background="new 0 0 436.6 130" xml:space="preserve">
<g>
	<path fill="#000066" d="M243.1,79v20.8c-11.7,5.9-22.7,8.8-33.6,8.8c-30.5,0-48.8-17.9-48.8-40.5c0-24.5,20.9-44.7,47.6-44.7
		c6.6,0,11.6,1.2,16.8,2.9c3.7,1.2,6,2.5,8.4,2.5c2.1,0,2.6-3.4,2.9-5.4h2.9l2.6,28.1h-3.5c-1.4-5.6-4.1-10.1-7.6-13.3
		c-5.5-5.6-13-8.5-21.7-8.5c-18.3,0-29,14.5-29,36.3c0,21.5,13,36.1,30.4,36.1c5.1,0,9.8-1.2,15.6-3.8V76.9c0-6.9-1.1-9.5-11-9.5
		v-3.2h36.8v3.2C242.8,67.4,243.1,70.4,243.1,79 M141.8,44.7v62.4H137L74.6,42.7c0.3,1.8,0.3,3.2,0.3,5v39.2c0,12,0,16.4,11,16.4
		v3.2H56.6v-3.2c11.1,0,11.1-5.3,11.1-16.4V42.2c0-6.6,0-13.9-11.7-13.9v-3.1h27.6l51.3,52.7c-0.3-1.5-0.3-2.3-0.3-4.4V44.7
		c0-11.6,0.3-16.5-10.7-16.5v-3.1h29.3v3.1C142.4,28.2,141.8,32.9,141.8,44.7 M0.1,106.5v-3.2c7,0,12-0.6,12-10.8V39
		c0-10.5-3.8-10.8-12-10.8v-3.1h41.2v3.1c-8.4,0-12,0.3-12,10.8v53.5c0,10.2,4.4,10.8,12,10.8v3.2H0.1z"/>
	<g>
		<path fill="#FF6200" d="M369.3,98c-0.6,0-0.9,1.5-0.9,2.1c0,2.6,1.2,4.7,2,6.4h2.6c-0.3-2.3-0.9-4.4-0.9-7c0-1.5,0.9-3.2,1.2-4.1
			l-2.9,0.3c1.2,0.6,1.2,2.1,1.2,2.3c0,0.9-0.6,1.8-1.2,2.3C369.9,99.8,369.9,98.9,369.3,98z"/>
		<path fill="#FF6200" d="M318.4,99.5c-0.9,2.9,1.8,4.7,2.1,7h3.5c-1.5-2.6-1.8-6.7-1.8-7.6c0-1.5,0-3.5,0.9-4.9l-3.2,0.6
			c-0.9,1.1-1.2,1.7-1.2,2.3l1.5-0.6c0.3,0,0.6,0.6,0.9,1.2C320.7,98.9,319,98.9,318.4,99.5z"/>
		<path fill="#FF6200" d="M425.2,97.4c7-6.7,11.1-17.8,11.1-28.5c0-12.7-5.3-25.6-14.7-34.9c-4.1-4.1-8.5-6.1-12-10.1
			c-1.8-1.7-3.1-3.5-4.3-5.8c-1.5-1.5-2.4-2.3-4.1-3.2c0.3,0.9,0.6,1.8,0.9,2.6h-0.3c-1.5,0-2.9-0.9-4.1-1.8l1.2-1.2
			c-0.3-0.5-1.2-0.5-1.8-0.5c-4.7-0.8-9,1.7-13.5,2.6v0.6c2.9,0.9,3.5,4.4,5.1,6.1h1.7c0.6,0,1.5,0.6,2.1,0.6c0-0.6-0.6-1.7-0.6-1.7
			c0.6-0.6,1.2-0.6,1.8,0c1.5,0.9,3.5-0.6,5,1.7c-1.8,0-3.5,0-5,0.9c0,0.3,0.9,0.8,0.6,1.4c-1.5-0.6-3.2,0-3.8-1.1l-0.3,0.2
			c1.8,2.1,4.4,3.7,7,4.6c3.8,0.6,7-1.2,10.7-0.3c13.2,6.5,22.6,21.5,22.6,36.6c0,21.5-12.3,30-20,30c-1.5,0-3.7-0.9-4.6-1.7
			c0.9-3,1.4-6.5,1.4-11.8c0-12.4-4.9-25.9-11.7-32.8c-3.2-3.2-6.7-5.9-10.3-5.9c-1.8,0-3.5,0-4.7,1.5c-1.5,1.2-2.4,3.5-2.1,5
			c-2.3,1.8-6.1,2.6-9.1,2.6c-3.2,0-7.3-1.2-10.9-4.1v-4.4c-0.8-0.3-3.8-2.1-2.3-3.4c0.9,0.3,1.5,0.8,1.8,1.1
			c-0.3-1.9-0.3-4.3-1.8-6c-0.6,0-1.5,0-2.3-0.6c-0.9-0.9-1.8-2-1.8-3.5c0.9,1.5,2.3,0.9,3.2,1.8c-1.5-3.5-0.9-5-3.5-10.1
			c-0.6-2.6-3.2-4.1-5-5.8c-0.9-0.6-1.2-1.5-2.2-1.5c-1.2-0.3-1.2-1.8-1.2-2.6c0.3,0,1.2,0.5,1.7,0.8c-1.7-4-2.9-8.3-6.7-10.7
			l-0.9,0.6h-4.7c0.6-0.6,1.8-0.9,2.6-1.5c-0.9-0.9-1.5-1.2-3.2-1.2c-0.8,0.3-1.9,1.2-3,1.2h-0.3c0-0.9-0.3-2.1,1.4-2.6
			c-1.7-0.3-3.2-0.3-5.2,0c-0.3,1.5-1.2,2.3-1.2,3.5c-0.9,0.6-1.2,1.5-2.1,2.3c0-1.8,0.9-3.5,1.2-5.3c-1.2,0.3-2.6,1.2-3.2,1.2
			c-2.3-1.2-5.3-2.3-6.4-2.3c1.8,1.2,0.9,3.2,1.2,4.7l-1.2-0.6c-0.3-1.2-1.8-2.1-2-3.5c-1.8,0-2.9,0.6-4.4,1.5v0.3
			c0.9,0,2.1,0.9,2.6,1.8c-2,0-3.5-0.9-5.6-0.9c0,0,0-0.3-0.3-0.3c-0.8,0.3-1.6,1.2-2.1,1.8c-2.1,1.8-3.5,3.2-4.4,5.8
			c0.6,0,1.5,0,1.8,0.3c-1.2,0.3-1.8,1.8-2.9,2.1v4.3c-0.9,0.9-2,1.8-2.6,3.5c-1.5,4.6-1.8,9.8-1.8,15.7c-0.3,1.2-0.9,1.5-1.5,1.8
			v4.5c0,0,1.8-1.6,2.6-2.2v3.7c-1.2,0-2,1.5-2,2.3c0,1.2,0.3,2.3,0.3,3.5c0,0.6,0,0.6,0.3,1.2c0-0.6,0.6-1.2,1.5-1.5
			c0,0,0.6-0.6,1.8-0.6c-0.9,0.9-1.2,2.1-1.8,3.2l-0.9,0.9c0,0-0.3,0.6-0.3,0.9c1.2,6,2.9,11.3,5.3,17c-2.3,3.8-5,11.1-6.7,18.1
			c-1.5-1.5-3.5-1.7-5.3-1.7c-1.6,0.3-3.4,0.9-4.6,2.6c-1.8-0.9-4.1-0.6-5.2,0.6c-2.4,2.1-2.4,3.2-2.4,5c-0.6,0.6-1.8,2.1-1.8,4.1
			c0,2.6,0.3,4.4,1.8,6.7h43.9c-0.3-0.9-0.9-2-1.5-2.6c-0.9-1.8-0.3-4.1-0.3-5.9c0.9-1.7,1.8-3.4,2.9-4.9c0.3-0.9,0-0.9,0.3-1.2
			l2.1-0.3c1.2,0,2-0.9,3.5-0.9c0.9,1.2,0.9-0.9,2.4-1.5c3.2-0.6,6.2,0,7.9,2.3c0,0.3,0.3,0.3,0.3,0.6h-1.5
			c-1.6-0.6-3.6-1.5-5.6-0.6c0,0.6-0.3,0.6-0.3,1.5v1.5c1.2,0,2.1,1.1,3.2,1.7c0.5-0.9,2.1-1.7,3.3-1.7c1.5,0,3.5,0.8,3.5,3.2v3.2
			c1.2,1.2,2.6,1.5,4.1,2c-0.6,1.2-1.5,1.2-2.3,1.2h-2.3c-0.3-0.3-0.9-0.3-0.9-1.2c-0.9,1.2-1.5,2.4-2.1,3.5h33.9
			c-0.6-1.2-1.2-2-1.5-2.6c-0.6-1.8-0.6-4.1-0.6-5.9l3.2-4.3c1.7,0,3.2-0.6,6.4-0.9c0.6-0.9,0-1.2,2.6-1.2c2,0,3.5,0.3,4.1,0.6
			c0.3,0.6,0.3,0.6,0,1.2c-0.6,0.6-1.7-0.6-2.6-0.3c-0.6,0.6,0.3,0.9,0.3,1.5c0.6,0.5-2.6-0.6-2.6-0.6s-0.6,1.7-0.9,2.3
			c0,0,1.2,1.2,1.8,1.7c0.6,0.9-0.9,1.8-0.9,2.6c-0.6-0.3-1.8-1.2-1.8-0.9c-0.6,2.4,0,4.4-0.3,6.7h3.2l0.3-5
			c0.3-2.9,3.8-8.1,5.9-8.1c1.2,0,2,0.6,2.9,1.2c0.5,1.1,1.9,1.7,1.9,2.3c0,0.6-0.8,0.9-2.2,0.9c-0.6,0-0.6-0.9-1.4-1.5l-1.8,1.7
			c0,0,2,1.8,2,2.9c0,1.5-0.3,2-1.2,2.9l-1.8-3.5c-0.9,0-2.3,1.8-2.3,2.6c0,1.2-0.6,1.8-0.6,3.5h17.9c2,0,3.8-0.6,5.8-1.8h3.5
			C414.4,104.7,420,102.7,425.2,97.4z M393.4,19c-0.6-0.9-1.5,0-2.1,0s-0.9,0-2-0.9c1.7,0,2.6-0.9,4.1-1.5c1.2,0.9,2.3,1.2,3.2,2.3
			h-3.2V19z M402.8,23.4c-0.9-1.2-2-2.6-3.2-2.6c0.9,0,2.1-0.9,3.5-0.9c0.6,1.5,1.8,2.3,2.1,3.5l0.3,1.8
			C404.8,23.9,403.6,23.4,402.8,23.4z M354.9,61.6l-1.5,0.6c-3.2,0-4.7-0.9-6.1-2.1c1.2,0,2.6-1.5,2.6-1.5
			C351.4,60.1,353.5,61.3,354.9,61.6z M339.8,58.3c-1.5,0.3-2.6-1.2-4.1-1.8c-0.6-1.6-0.6-3.4-1.2-4.2c1.2,0.9,3.8,0.9,3.2,3.5
			C337.7,56.6,338.9,57.2,339.8,58.3z M339.8,68c0.9,0.3,2.3,1.2,3.2,1.8h-0.9c-3.2,1.1-5.9-0.9-8.5-2.6c1.5-0.6,3.5-0.9,5.3-0.9
			L339.8,68z M340.4,63.3c1.2-0.9,2.6-0.9,3.2-1.2c1.2,1.2,2.2,3.2,4.3,4.4c-1.2,0-3.1,0-4.3-0.9C341.8,64.8,341.3,64.2,340.4,63.3z
			 M337.2,81.3c0-0.9,0.6-1.7,1.8-2.3c1.8,0.6,3.2-3.2,5-1.2c0.9,0.3,1.7,0.3,2.2,0.3c2,0.9,2.6,2.6,3.5,4.1c-1.5,0-2.6,0-3.5-1.5
			c-0.3,0-0.8-0.9-1.1-0.3c-1.5,1.2-2.9-0.9-4.7-0.6c-0.9,0.9-1.7,1.5-3.2,1.8L337.2,81.3L337.2,81.3z M351.7,50.6
			c-0.3,1.2-1.5,0-1.7,0h-2.6c-0.3-0.6-0.6-0.9-0.6-1.5c1.2-0.3,2-0.9,2.9-0.3C350.2,49.7,350.8,50.6,351.7,50.6z M346.1,38.1
			c0.6,1.2,0.6,1.8,1.2,2.3c1.2-0.6,1.2,0.9,1.5,1.2c0.3,0.8,0.9,1.6,0.9,2.5c-1.8,0-2.6-0.9-3.5-2.5
			C346.1,40.8,345.9,39.6,346.1,38.1z M343.9,52.3l2.8,2.6c-1.7,0-3.7,0.9-4.6-0.9C342.7,53.8,343.3,52.9,343.9,52.3z M343.6,30.2
			c0,0.3-0.6,2.9-0.6,2.9l-2.3,0.6l1.5-6.3C342.7,28.5,343.6,29.6,343.6,30.2z M302.5,9.2c0.5,0,1.3-0.3,1.6-0.9
			c1.4-0.3,2.3-1.8,4.1-0.9c1.2,0,2.3,0.6,3.2,0.9c0,0.6,0,0.9,0.6,1.5c1.8,0,1.8,1.7,2.6,3.2c0.9,0.3,1.7,0.3,2.3,0.3
			c1.8,0.5,3.2,0.5,3.8,1.3c2.3-1.3,4.7-1.6,7.3-1.3c0.3-0.9,0.9-2.1,1.2-3.5c0.3,0.9,0.3,0,0.9,0c1.1-0.9,2.4-2.3,4.4-1.8
			c1.2,0.9,3.2,0.3,4.4,1.8c0.9,1.1,1.5,2.9,2.3,4.3c-0.9,1.7,0,4.1-1.8,4.9l-1.8,1.8c-0.6,0-0.6,0.6-1.5,0.6c0.9,2,0.3,4.9-0.6,6.9
			c0.6-0.2,1.5-0.2,1.5-1.1c0.3,0.3,0,0.8,0,1.1v0.8c0,1.5-0.9,2.9-2.1,4.1c-0.6,1.8-2,4.1-3.9,4.4v0.6c4.2,0,7.8,1.2,11.9,3.2v1.9
			c-3.5-1.9-7.3-3.4-11.6-3.7c0,0.9,0,1.7-0.3,2c3.4,1.6,6.6,3.1,9.5,5.7V50c-2.9-2.9-6.2-5.9-9.8-6.7c-0.3,0.6-1.4,1.2-1.7,2.3
			c-2.1-1.5-4.4-2.9-6.8-3.2c-0.9,0-1.5-3.1-1.5-3.1c1.5-0.6,2.4-1.5,2.9-2.9h1.2c0.9,0,0.9-0.6,0.9-1.5c0-1.8-3.8-1.8-5.6-1.8
			c-2.1,0-3.5,0-4.7,0.9c-0.6,0-0.3,0.9-0.3,1.5c0,0.3,0.9,0.9,0.9,0.9c0.6,0,1.2-0.6,1.8-0.6c-0.3,1.8,0.3,2.6,2,3.5l-0.3,2.8
			c-3.5,0-5.9,1.4-8.5,2.6c-0.9-0.6-1.5-1.5-2.1-2.3c-3.5,1.2-9.4,5.8-9.4,5.8v-2c2.6-2.3,5.9-3.5,8.5-4.9v-2c-1.2-0.6-2.3,0-3.5,0
			c-2.5,0.3-5,1.4-6.8,2.8c0-0.8-0.3-2-0.3-2c3.2-1.8,7.1-3.2,10.9-2.6v-1.2c-0.3-0.6-0.3-1.5-0.9-1.5c-1.8-1.8-3.5-4.4-3.5-6.2
			l1.2-0.6c-0.6-1.7-1.2-6,0-7.5c-1.7-0.9-3.3-2.3-3.9-3.5c-0.6-1.5-1.2-2.3-1.5-4C301.1,11.5,301.6,10.9,302.5,9.2z M329.5,63.3
			c-1.5-0.9-4.1-1.2-3.5-2.9c0.6-1.5,1.5-1.8,2-2.3C328.3,60.1,328.6,61.6,329.5,63.3z M311.4,55l-0.9,3.6c-0.9-1.7-1.8-3.4-2-5.4
			L311.4,55z M307.5,59.5c-1.8-0.6-3.8-2.3-4.6-3.7c-0.5-1.2-0.8-2.6-0.8-3.5c1.1,0,1.9,0.9,2.1,1.5v0.3
			C305.8,55.9,307.2,57.2,307.5,59.5z M304.3,63c0,1.2-0.5,2.6-1.9,4.1c-0.3,0.3-1.1,0.9-1.1,0.9c0-1.8,0.8-3.2,0.8-4.7
			C303,63,303.8,62.4,304.3,63z M307.2,66.5c0.3-0.3,0.6,0,1.2,0l-1.2,4.3c-1.5,1.1-3.5,0.6-5.1,0.6
			C304.3,70.8,306.1,68.3,307.2,66.5z M297.2,20.7c0.6-0.9,0.9-1.8,1.8-2.6v3.5l-2,0.6L297.2,20.7z M297.2,26.6l2.3-0.9l-1.5,1.8
			c0.3,2.8-0.9,4.9-0.9,7.5l-1.5-4.7C296.1,29.1,296.4,28,297.2,26.6z M297,60.1c0.3-1.2,1.2-1.8,1.4-2c0.9,0.3,1.5,0.3,2.6,0.6
			c-1.5,1.5-2.9,2.1-3.5,3.8C297.5,61.6,297.2,60.7,297,60.1z M278.3,98.9c-0.3,0-1.2-0.9-2.1-0.9c-0.8,1.8,0,2.9,0,5
			c0,0.9-0.3,1.8-0.3,1.8c-0.5,0-1.6-1.2-1.9-2.3v-4.7l2.4-3.2C278.3,95.7,278.9,97.4,278.3,98.9z M285,98.9
			c-0.3-1.2-1.1-2.6-2.5-2.6c-1.2,2.3-1.5,3.2-0.3,6.7c-0.9,0.9-1.5,1.2-2.6,1.8c-0.6-1.2-0.6-3.2-0.6-4.4c0-2.1,0.3-4.1,0.9-5.8
			c0.9-0.9,1.5-2.4,2.3-3h3.1c-1.4,0-1.4,1.2-1.4,2.1c0.8,0.3,2,0.6,2,2C285.8,96.8,285.5,98,285,98.9z M292.3,103
			c0-1.5,0.9-3.2,0.9-5c0,0-1.2-1.2-2.4-1.2c-0.9,0.6-0.9,1.2-1.2,2.1c-0.9,1.8-2.6,3.5-2.9,5.3c-0.3,0-0.3-0.3-0.3-0.3
			c0-2.9,0.3-7.9,2-9.9c1.5-1.8,2.6-1.8,4.4-2l1.5,0.3l-1.2,1.8c1.2,0.6,2.9,1.7,2.9,3.5C296.1,99.8,292.3,103,292.3,103z
			 M303.3,97.4l-1.9-5.2c-2.4-2.1-5-2.4-6.5-3.6c-1.2-0.3-1.2,0.6-1.8,0c0-0.6,0-1.5,0.9-2.3h1.7l1.8,0.9c0.9,0.9,2.9,0.9,2.9,2.6
			c0,0.3-0.3,0.6,0.6,1.8l2.7,0.6l0.3,2.4L303.3,97.4z M306.4,92.2c-0.6-0.6,0-2.1-0.9-3c0-0.6,0.6-0.9,0.3-1.2
			c-0.3-0.6-3.6-1.8-3.6-1.8c-1.1-0.9-2.6-1.8-3.8-2.9c-1.2-0.3-2,0.3-3.5,0.6v-0.6c0.6-1.2,0.6-2.6,2.3-2.6c0.9,0,2,0,2.6,0.9
			c1.2,0,1.8,1.2,2.6,1.5c1.3,1.4,2.5,2.1,3.3,2.6c0,0.9,0.3,1.5,0.9,1.8c1.8,0,1.2,1.7,1.8,2.9L306.4,92.2z M309.6,85.7
			c-0.6-2-2-4.1-3.8-4.1c-0.9-0.9-1.7-1.8-2-2.6c-0.8-0.9-1.6,0-2.7-0.9c-1.2,0-2.6,0-3.8,0.9v-0.9l2-2.3c2.1,0.3,4.5,0,5,1.5
			c1.5,0.9,2.9,1.8,3.2,2.4v0.9c0.6,0.3,1.8,0.6,2.3,0.9C309.9,82.2,309.6,85.7,309.6,85.7z M312.8,71.4c-0.9,0-2.4,0.6-4.1,0
			c0.9-0.6,1.8-0.8,2.9-1.6l2.3-2.3h2.3C315.4,69.2,314.6,70.8,312.8,71.4z M313.7,58.3c0.9,0,1.8,0,2.6,0.6c0,1.5,0.6,2.7,0.6,4.4
			C315.2,61.6,313.7,60.1,313.7,58.3z M314.6,75.8c0.3-0.9,1.1-1.2,1.7-2c0.6-0.9,1.8-2.3,2.1-3.2c1.5-0.8,2.1-0.8,3.2-0.8
			c-0.3,1.6-1.2,2.2-2.6,4.2C318.1,74.6,316.3,74.9,314.6,75.8z M318.7,81.3l-1.8-2.3h4.4l0.9,1.7C321,81.6,320.1,81.6,318.7,81.3z
			 M320.7,64.2l-0.6-2.9c0.9-0.6,1.8-1.2,2.9-2.7C323.1,60.7,322.8,63.3,320.7,64.2z M324.2,49.1c-0.3,0,0,0.9-0.3,0.9
			c0,0.6-0.6,1.8-0.6,2.9c-0.6,0.3-1.8,0.9-2.9,0.3v-0.9c-0.3-0.6-0.3-1.8-0.3-2.3l-0.3-0.3c-0.9,0.3-0.9,0.9-0.9,1.5
			c-0.3,0.6-0.9,1.2-0.9,2c-1.2,0-1.8-0.3-2.6-0.9v-2.6c0-0.6,0-0.6-0.3-0.6l-1.5,1.5c-1.2-0.9-1.5-3.2-1.5-4.7
			c4.7-2.6,10.5-1.8,14.1-0.3c0.6,0.3,1.2,0.3,1.7,0.6c-0.3,1.8-0.9,4.4-2.6,5.6C325.4,50.6,324.8,50,324.2,49.1z M329.5,80.5
			c-0.3,0-2.3-0.9-2.9-1.5c-0.3-0.9-0.3-1.8-0.3-1.8h2.3l1.5,3.2h-0.6V80.5z M329.5,72.5c-1.8-1.4-2.9-3.1-4.7-5.4l4.7,0.9
			c0.9,0.6,2.5,2.5,3.3,3.4C332.2,72,330.6,72.5,329.5,72.5z M332.5,61.6c-1.6-2.7-0.8-5,0-6.9c0.6,1.7,0.9,3.4,1.1,4.8
			c0.3,1.2,2.1,1.8,2.6,2.6C335.1,62.4,333.1,63,332.5,61.6z M333.6,87.5l1.5-3.5c1.2,0,2.1-0.6,2.6-0.6c1.2-0.3,2.1-0.3,2.9-0.3
			v0.3c3.2,0,6.9-0.3,9.3,2.3l0.3,2.4c-1.2-0.9-2.9-0.9-3.5-2.4c-1.1-0.3-1.9-0.3-3.4-0.3c-1.2,0.3-2.6,0.3-3.8,0.3
			c-0.3,0,0-0.3-0.6-0.6C337.2,85.7,335.4,85.7,333.6,87.5z M343,98l-0.9,0.9c-0.9-0.9-0.3-3.2-1.8-3.5c-1.5,0-2.6-1.4-3.2-1.7
			l1.2-0.6c0,0,0.6-0.3,1.2,0c0.6,0.6,1.2,0.9,1.2,1.5c0.6,0.8,1.5,0,2.1,0.8C343,96.3,343.3,97.4,343,98z M352,97.4
			c-0.6-1.8-1.2-4.3-3.2-4.3c-0.3-1.2-0.6-1.5-1.8-2.4l-2.2-0.3c0.3,1.2,1.9,1.2,0.8,2.7c1.1,0.9,2,0.9,2.6,2.3
			c0.6,0.9,0,2.1,0.3,2.6l-1.8,0.9c0-1.5,0.3-4.3-1.7-4.9c-1.7,0.6-2-1.8-3.2-2.4c-0.6,0-0.6-1.5-1.5-0.9c-1.5,0.9-3.2,0-4.7,0.9
			l1.5-2.3c1.2-0.9,2.3-0.6,3.5-0.9l2.3-0.3c2.3,0,4.3,1.2,6.6,2c1.2,0.6,1.7,1.5,1.7,2.7c0.6,0.3,1.8,0.3,1.8,1.2
			C352.9,94.6,352.3,96.3,352,97.4z M356.1,93.1c-0.6-0.9-0.9-1.5-1.5-1.5c0.9-3.2-0.9-5.9-1.5-8.5v-0.9c0.9,1.5,3.2,2.9,2.9,4.4
			c0.3,2.6,0.3,5,0.3,6.5H356.1z M353.2,56.9l2.3-1c0.9,0.7,2.1,1,2.6,1.3C357.3,58.1,354.9,58.3,353.2,56.9z M372.8,61.6
			c0.6,0.6,1.2,0.9,1.7,1.7v2.3c-2.6-1.5-4.1-4.1-6.4-6.7C370.5,58.9,371.1,61.3,372.8,61.6z M359.8,62.2c0.8,0.9,1.9,2.1,1.9,2.9
			c0,0.9-0.6,1.2-1.1,1.8c0,0-1.1-1.5-1.1-2.1C359.5,63.6,359.5,63,359.8,62.2z M362.3,84c0-1.8-0.3-3.2-1.5-4.4
			c0-0.6,0.8-0.6,0.3-1.5c0,0-1.6-0.9-1.6-2.1s1.1-2.1,1.6-2.9c0-0.3,1.2,0.6,1.2,2.3c0,0.3,0,1.2-0.3,1.8c-0.3,0.9,1.8,0.9,1.8,1.8
			C363.8,80.7,362.6,82.2,362.3,84z M365.5,71.4c0,0.6-0.9,1.1-1.2,1.1c0,0-1.5-1.4-1.7-2.8c-0.3-1.2,0.9-3.2,0.9-3.2
			c0.3,0,0.6,0.6,0.9,0.6c0.3,0.3,0,1.2,0.3,2C365.5,69.8,366.1,70.8,365.5,71.4z M368.1,86.6c0.6-1.5,0.6-4.4,0-4.4
			c-0.6-0.3-1.8,0-1.8-0.6c0-0.9,0.3-2,0.3-2.6c0-1.2-0.9-1.8-0.9-2.3c0-1.8,2.1-2,2.6-3.2c0.3,1.2,0.3,2.3,0.3,3.8
			c0,0.6,0.9,2.4,0,3.8c0,0.9,1.7,0.3,1.7,1.2C370.5,83.7,368.7,85.4,368.1,86.6z M372.8,79.6c-0.9,0-0.9-0.6-0.9-1.8
			c-0.3-1.8-0.9-3.2-1.5-5c-0.6-2.3-2-4.2-3.2-6.9c-0.3-1.2-1.8-1.8-2.9-2.6c1.5,0,2.9,0,4.1,1.2c0,0.6,0.3,0.9,1.2,1.8
			c2,0,1.5,2.6,3.2,3.8c-0.9,0.8-1.2,1.3-1.8,1.9c0.9,0.6,1.8,0.9,2.1,1.8C373.1,75.5,372.8,77.5,372.8,79.6z M376.9,76.7
			c-0.6-1.8-1.8-3.5-2.4-5.2c0-0.3-0.3-0.3,0.3-0.6c0.3,0,1.5,0,1.5,0.3c0.3,0.6,0.9,1.4,0.9,2.3C377.2,74.6,376.6,75.5,376.9,76.7z
			 M392.5,68c-0.6-0.6,0-1.8-1.5-1.8c-0.6,0-1.5,0.9-1.5,0.9c-0.5,0.3-2.2-0.9-2.2,0c0,1.5-1.1,2-2.6,2c-0.6,0-1.2,0-1.8-0.3V66
			c3.8,0,3.5-1.2,5.1-1.2c1.1,0,1.9,0.6,2.8,0.6c1.5,0,0.6-0.6,2.1-0.6s2,1.2,2.9,1.5c0,0.9,0.9,2.1,0.9,3.2
			C394.8,69.5,392.8,68.9,392.5,68z M394.3,75.8c-0.9-0.3-2.9-0.6-2.9-1.5c0-1.2-0.6-1.5-2-1.5c-1.1,0-1.9,0.3-3.6,0.9
			c0,0-0.9-1.2-1.2-2.3c0.6-0.3,2.9-0.8,3.9-0.8c2,0,4,0,4,0.8C392.5,72.5,394.3,72.8,394.3,75.8z M391,59.5c0.9,0,1.5-0.6,2.1-0.6
			c1.5,0,2.6,2.4,2.9,4.1c-2.3-1.5-5.9-2.4-7.8-2.4c-1.1,0-4.5,1.5-5.7,2.6l-0.6-2.6c1.8-0.3,1.8-1.8,2.9-1.8c0.9,0,2-0.3,2.8-0.3
			s1.4-0.6,1.6-0.6C390.7,58.1,390.2,59.5,391,59.5z M382.2,55.9c0.9-0.9,2.3-2.1,3.5-2.1c2,0,3.6,1.5,3.6,2.8c-1.6,0-1.9-0.2-3-0.2
			c-1.5,0-3.2,0.5-4.1,2C381.6,57.2,381.9,56.6,382.2,55.9z M383.1,48.2c1.2-0.6,1.8-0.3,2.3,0c0,1.8,2,0.9,3.1,1.5
			c0.5,0.9,0.8,1.5,1.1,2.6c-1.9-0.6-3-1.5-4.7-1.5c-0.6,0-3.2,0.9-3.5,1.5C380.5,51.2,381.9,48.8,383.1,48.2z M388.5,92.2
			c-1.4-0.6-2.2-0.9-3.9-0.9c0-1.2-0.9-2.6-1.5-2.6c-1.8,0-1.5,1.2-2.9,1.2l2.6-2.6c0.3-0.6,0.3-0.6,0.9-0.6c0.9,0.6,1.2,0.9,2,0.9
			c0,0.6,0,0.9-0.3,1.7c0.9,0.6,1.4-0.3,2,0.6c0.8,0.3,1.6,0.6,1.6,1.8C389,91.7,388.5,92.2,388.5,92.2z M391.3,88.4
			c-2-0.3-2-2.6-2.3-2.9c-1.4-1.8-3.3-0.3-4.8-0.3c-0.6-1.8,0.3-1.8,0.3-2.9c0.9,0,1.8-0.6,2.6,0c1.4-0.6,2.2,0.9,3.6,0.9
			c0.3,0.6,0.9,2.1,1.2,2.3C391.9,86.6,391.6,86.9,391.3,88.4z M392.8,82.2c-2.1,0-0.9-4.1-5.1-4.1c-0.8,0-1.4,1.5-2.5,1.8
			c0-0.3,0.3-2.1,0.3-2.1c0-0.6,0.3-1.8,1.4-2.3c2.2,0,1.6,0.9,3.3,1.5c0.9,0.3,1.5,0.9,2.6,0.9L392.8,82.2L392.8,82.2z M396.9,95.4
			c0-1.4-1.8-2.3-2.9-4.7l1.2-2.1c0.9,0.6,2.1,1.5,2.1,2.9c0,0-0.3,0.6,0,1.2c0,0.3,0.6,0.3,0.6,0.9
			C397.2,94.6,397.2,94.6,396.9,95.4z M398.9,89.8l-1.8-2.6c0.6-0.9,0.6-2,1.5-3.5c0.3,0,1.2,2,1.2,2.3
			C399.8,87.8,399.8,88.4,398.9,89.8z"/>
		<path fill="#FF6200" d="M326.3,96.3c-0.6,0-1.5,1.7-1.5,2.3c0,2.3,0.6,5.6,1.5,7.9h2.3c0-2.6,0.3-5.6,0.3-7.9
			C328.6,98.6,329.2,99.2,326.3,96.3z"/>
		<path fill="#FF6200" d="M333.1,97.4c-0.6,0-1.9,0.9-1.9,1.5c0,1.2-0.5,7.6-0.5,7.6h1.9c0.9-2.6,2.6-6.1,2.6-7.6
			C335.1,97.7,334.2,97.4,333.1,97.4z"/>
		<path fill="#FF6200" d="M335.4,19h0.9c0.9-0.9,1.5,0,2.1-0.9c0.6-1.5,0.6-4.1-0.6-5.4c-0.6-1.2-2-1.8-3.5-2.9l-2,1.1
			c-1.1,0.6-1.6,1.8-1.6,3.1C332.5,14.9,334.5,17.2,335.4,19z"/>
		<path fill="#FF6200" d="M318.7,17.2c-0.6-0.6-2.3,0.3-3.2,0.6c-1.2,0.3-2,1.2-2,2h3.2C316.9,19,318.1,17.8,318.7,17.2z"/>
		<path fill="#FF6200" d="M310.5,38.7c0,0.6,0,1.2,0.9,1.8c0.9-0.9,2.3-1.2,2.6-1.2C313.4,38.1,311.9,39.3,310.5,38.7z"/>
		<path fill="#FF6200" d="M323.9,17.5c1.5,0,0.9,2,2.1,2.3h2.6c0-0.9-0.3-0.9-0.6-0.9c-1.5,0-1.5-2.3-2.6-1.8c-0.6,0-1.2-0.6-2,0
			C323.4,17.5,323.4,17.5,323.9,17.5z"/>
		<polygon fill="#FF6200" points="326.3,39.6 329.5,40.8 329.5,39.3 326.6,39.3 		"/>
		<path fill="#FF6200" d="M307.8,22.2c0,1.2,0.9,1.7,1.8,1.7c0,1.2,0.9,1.4,1.2,1.7c0.9,0.6,1.2,0.6,2,0c0.9,0.6,1.2-0.5,1.5,0
			c0,1.8,0,2.6-0.3,4c-0.3,2.1-2,1.8-3.5,2.6c0,0.9-0.9,2.3,0,3.2c0.9-0.6,1.5-0.9,2.9-1.5c0-0.9,0.9-1.8,2-2.3
			c0-2.6,0.9-5.1,0.9-7.8c0-0.6-0.6-1.2-1.5-1.7h-6.4C308.4,22.2,307.8,22.2,307.8,22.2z"/>
		<path fill="#FF6200" d="M306.7,17.5c1.2-0.9,4.1-2.9,5.6-3.5c-0.3-2.8-3.5-3.1-5-4.3h-1.2c-2.3,0.9-2.8,3.2-3.1,5.1
			C303.8,17.5,305.5,15.7,306.7,17.5z"/>
		<path fill="#FF6200" d="M324.8,23.9h-0.6c0.6,2.3,0.6,4.8,0.6,7.5c1.2,0.3,2.3,0.9,2.3,2.6c1.2,0.6,2.3,0.9,3.5,1.8
			c0.5-0.3,0.8-1.2,1.1-2c-1.1-1.5-3.7-0.6-3.7-3.2l-1.7-0.6c0-1.7,0-3.4-0.3-4.6l0.3-0.2c0,0.2,0.3,0.5,0.9,1.1
			c1.2,0,2.3,0.3,3.5-0.6c0.5-0.3,0.5-1.7,1.1-1.7c0.5,0,1.1,0,1.4-0.6c0,0,0.6,0,0-0.3l-6.2-0.9C326.3,23.1,324.8,23.1,324.8,23.9z
			"/>

	</g>
</g>
</svg>
