<svg 
 xmlns="http://www.w3.org/2000/svg"
 xmlns:xlink="http://www.w3.org/1999/xlink"
 width="230px" height="59px">
<path fill-rule="evenodd"  fill="rgb(236, 0, 0)"
 d="M-0.000,-0.000 L230.000,-0.000 L230.000,59.000 L-0.000,59.000 L-0.000,-0.000 Z"/>
<path fill-rule="evenodd"  fill="rgb(255, 255, 255)"
 d="M211.934,23.725 C211.934,24.812 211.799,26.128 211.598,26.820 C210.726,26.721 209.853,26.688 208.813,26.688 C207.907,26.688 207.001,26.755 206.095,26.886 L206.095,40.976 L202.405,40.976 L202.405,24.515 C203.983,23.989 206.633,23.594 208.713,23.594 C209.853,23.594 211.129,23.627 211.934,23.725 M187.173,30.902 L195.493,30.902 C195.493,28.202 194.016,26.623 191.467,26.623 C188.850,26.623 187.475,28.104 187.173,30.902 M199.015,33.931 L187.240,33.931 C187.709,36.860 189.453,38.276 192.742,38.276 C194.755,38.276 196.801,37.848 198.647,37.025 C198.512,37.980 198.311,39.231 198.076,40.317 C196.398,41.075 194.621,41.370 192.641,41.370 C186.467,41.370 183.482,38.012 183.482,32.384 C183.482,27.479 185.797,23.594 191.668,23.594 C196.935,23.594 199.217,26.985 199.217,31.133 C199.217,32.153 199.150,32.977 199.015,33.931 M176.804,37.157 L176.804,27.018 C175.831,26.820 174.825,26.688 173.853,26.688 C170.195,26.688 168.450,28.927 168.450,32.680 C168.450,36.038 169.826,38.408 173.114,38.408 C174.590,38.408 175.799,37.914 176.804,37.157 M180.462,17.932 L180.462,40.976 L177.073,40.976 L176.871,38.869 C175.933,40.416 174.489,41.370 172.074,41.370 C167.646,41.370 164.693,38.210 164.693,32.680 C164.693,26.886 167.847,23.594 174.053,23.594 C175.026,23.594 175.933,23.692 176.804,23.857 L176.804,18.425 C177.946,18.030 179.254,17.932 180.462,17.932 M161.739,29.914 L161.739,40.976 L158.049,40.976 L158.049,30.540 C158.049,27.939 157.176,26.688 153.486,26.688 C152.614,26.688 151.574,26.787 150.568,26.951 L150.568,40.976 L146.876,40.976 L146.876,24.515 C149.225,23.956 151.808,23.594 153.586,23.594 C159.760,23.594 161.739,25.931 161.739,29.914 M139.159,37.223 L139.159,26.886 C138.388,26.755 137.549,26.688 136.509,26.688 C132.684,26.688 130.906,28.993 130.906,32.680 C130.906,36.038 132.282,38.408 135.569,38.408 C137.013,38.408 138.186,37.947 139.159,37.223 M142.850,24.515 L142.850,40.976 L139.461,40.976 L139.261,39.000 C138.320,40.449 136.879,41.370 134.530,41.370 C130.101,41.370 127.149,38.210 127.149,32.680 C127.149,26.886 130.302,23.594 136.509,23.594 C138.925,23.594 140.904,23.857 142.850,24.515 M123.054,38.276 C124.128,38.276 125.135,38.079 125.939,37.783 C125.839,38.770 125.705,39.889 125.504,40.844 C124.498,41.239 123.424,41.370 122.384,41.370 C118.793,41.370 116.513,39.757 116.513,35.741 L116.513,18.458 C117.654,18.096 119.062,17.932 120.203,17.932 L120.203,24.153 L126.041,24.153 C125.974,25.273 125.873,26.293 125.705,27.248 L120.203,27.248 L120.203,35.314 C120.203,37.453 121.276,38.276 123.054,38.276 M112.821,29.914 L112.821,40.976 L109.130,40.976 L109.130,30.540 C109.130,27.939 108.258,26.688 104.567,26.688 C103.695,26.688 102.655,26.787 101.648,26.951 L101.648,40.976 L97.958,40.976 L97.958,24.515 C100.307,23.956 102.890,23.594 104.667,23.594 C110.842,23.594 112.821,25.931 112.821,29.914 M90.241,37.223 L90.241,26.886 C89.468,26.755 88.630,26.688 87.591,26.688 C83.765,26.688 81.988,28.993 81.988,32.680 C81.988,36.038 83.363,38.408 86.650,38.408 C88.094,38.408 89.267,37.947 90.241,37.223 M93.931,24.515 L93.931,40.976 L90.543,40.976 L90.341,39.000 C89.401,40.449 87.959,41.370 85.611,41.370 C81.183,41.370 78.229,38.210 78.229,32.680 C78.229,26.886 81.383,23.594 87.591,23.594 C90.006,23.594 91.985,23.857 93.931,24.515 M60.414,40.252 C60.480,38.902 60.682,37.980 61.050,36.927 C62.930,37.783 65.346,38.210 67.191,38.210 C70.312,38.210 72.055,37.223 72.055,35.280 C72.055,33.371 70.781,32.482 67.627,31.133 L65.916,30.409 C62.763,29.059 60.615,27.314 60.615,23.824 C60.615,20.071 63.265,17.668 68.701,17.668 C70.882,17.668 72.928,17.965 74.841,18.623 C74.740,19.939 74.505,20.960 74.169,21.915 C72.358,21.256 70.210,20.960 68.667,20.960 C65.748,20.960 64.406,22.079 64.406,23.824 C64.406,25.536 65.714,26.523 68.063,27.511 L69.875,28.269 C74.135,30.046 75.913,31.922 75.913,35.116 C75.913,38.902 72.995,41.502 67.292,41.502 C64.541,41.502 62.292,41.108 60.414,40.252 M43.550,24.021 C43.497,22.819 43.154,21.627 42.520,20.551 L36.927,11.045 C36.500,10.320 36.206,9.543 36.042,8.747 L35.809,9.144 C34.425,11.496 34.425,14.395 35.808,16.747 L40.284,24.352 C41.668,26.705 41.668,29.604 40.284,31.956 L40.049,32.354 C39.885,31.557 39.591,30.780 39.165,30.056 L35.068,23.093 L32.453,18.649 C32.026,17.924 31.732,17.147 31.568,16.351 L31.335,16.747 C29.955,19.093 29.950,21.979 31.321,24.328 L31.320,24.328 L35.809,31.956 C37.193,34.309 37.193,37.208 35.809,39.561 L35.575,39.957 C35.411,39.161 35.117,38.384 34.690,37.659 L29.097,28.154 C28.347,26.880 28.004,25.444 28.067,24.022 C22.079,25.557 17.947,28.817 17.947,32.590 C17.947,37.839 25.944,42.095 35.809,42.095 C45.673,42.095 53.671,37.839 53.671,32.590 C53.671,28.817 49.537,25.556 43.550,24.021 "/>
</svg>