<svg xmlns="http://www.w3.org/2000/svg" width="16" height="16" viewBox="0 0 16 16">
    <path fill="#137E84" fill-rule="evenodd" d="M8 16c-4.411 0-8-3.588-8-8 0-4.411 3.589-8 8-8s8 3.589 8 8c0 4.412-3.589 8-8 8zM8 1.6A6.407 6.407 0 0 0 1.6 8c0 3.529 2.871 6.4 6.4 6.4 3.529 0 6.4-2.871 6.4-6.4 0-3.529-2.871-6.4-6.4-6.4zm1.37 6.736c-.668.441-.889.682-.889 1.246v.296H7.143L7.135 9.8a4.243 4.243 0 0 1-.027-.4c0-.955.426-1.485 1.064-1.986.574-.461.866-.804.866-1.392 0-.644-.44-.97-1.308-.97-.55 0-1.181.136-1.646.357l-.124.058v-.136c0-.449.046-1.009.12-1.462l.007-.045.042-.019c.536-.249 1.171-.374 1.887-.374 1.863 0 2.931.896 2.931 2.461 0 1.125-.603 1.769-1.577 2.444zm-1.51 2.543c.582 0 1.038.461 1.038 1.051 0 .583-.456 1.039-1.038 1.039-.59 0-1.052-.456-1.052-1.039 0-.599.452-1.051 1.052-1.051z"/>
</svg>
