<svg xmlns="http://www.w3.org/2000/svg" width="64" height="30" viewBox="0 0 16.933 7.938"><defs><linearGradient x1="0" y1="0" x2="1" y2="0" gradientUnits="userSpaceOnUse" gradientTransform="scale(22.49218 -22.49218) rotate(45 9.689 2.976)" spreadMethod="pad" id="d"><stop offset="0" stop-color="#e52f08"/><stop offset="1" stop-color="#e94f96"/></linearGradient><linearGradient x1="0" y1="0" x2="1" y2="0" gradientUnits="userSpaceOnUse" gradientTransform="matrix(0 98.12328 98.12328 0 155.822 50.34)" spreadMethod="pad" id="b"><stop offset="0" stop-color="#5a5a5a"/><stop offset=".737"/><stop offset="1"/></linearGradient><clipPath clipPathUnits="userSpaceOnUse" id="c"><path d="M107.863 126.54c0-6.21 5.036-11.247 11.246-11.247 6.213 0 11.244 5.037 11.244 11.247 0 6.209-5.031 11.247-11.244 11.247-6.21 0-11.246-5.038-11.246-11.247"/></clipPath><clipPath clipPathUnits="userSpaceOnUse" id="a"><path d="M60.766 148.846c-6.211 0-11.243-5.031-11.243-11.232V60.865c0-6.203 5.032-11.231 11.243-11.231h190.111c6.211 0 11.244 5.028 11.244 11.231v76.749c0 6.201-5.033 11.232-11.244 11.232z"/></clipPath><filter id="e" color-interpolation-filters="sRGB"><feFlood result="flood" flood-color="#000" flood-opacity="1"/><feComposite result="composite1" operator="in" in2="SourceGraphic" in="flood"/><feGaussianBlur result="blur" stdDeviation=".8" in="composite1"/><feOffset result="offset" dy="1.2" dx="1"/><feComposite result="composite2" in2="offset" in="SourceGraphic"/></filter></defs><g clip-path="url(#a)" transform="matrix(.07965 0 0 -.08 -3.944 11.908)"><path d="M60.766 148.846c-6.211 0-11.243-5.031-11.243-11.232V60.865c0-6.203 5.032-11.231 11.243-11.231h190.111c6.211 0 11.244 5.028 11.244 11.231v76.749c0 6.201-5.033 11.232-11.244 11.232z" fill="url(#b)"/></g><g clip-path="url(#c)" transform="matrix(.07965 0 0 -.08 -3.944 11.908)"><path d="M107.863 126.54c0-6.21 5.036-11.247 11.246-11.247 6.213 0 11.244 5.037 11.244 11.247 0 6.209-5.031 11.247-11.244 11.247-6.21 0-11.246-5.038-11.246-11.247" fill="url(#d)"/></g><g transform="matrix(.22578 0 0 .22679 -2.995 -7.391)" filter="url(#e)"><path d="M44.899 37.764h4.435V62.93h-4.435zm8.371 8.683h4.435V62.93H53.27zM33.368 58.743a4.05 4.05 0 11-.002-8.098 4.05 4.05 0 01.002 8.098m0-12.46c-1.44 0-2.794.36-3.98.998v-9.517h-4.435v16.93a8.414 8.414 0 1016.827 0 8.412 8.412 0 00-8.412-8.412M72.299 62.93h5.715l-6.867-8.866 6.224-7.617H72.19l-6.112 7.665V37.764h-4.436V62.93h4.436l-.004-8.796z" fill="#fff"/></g></svg>